<?xml version="1.0" encoding="UTF-8"?>
<svg width="24px" height="24px" viewBox="0 0 24 24" version="1.1" xmlns="http://www.w3.org/2000/svg" xmlns:xlink="http://www.w3.org/1999/xlink">
    <!-- Generator: Sketch 53.2 (72643) - https://sketchapp.com -->
    <title>close-2</title>
    <desc>Created with Sketch.</desc>
    <g id="close-2" stroke="none" stroke-width="1" fill="none" fill-rule="evenodd">
        <path d="M10,19.7485393 L10,21.7999638 C5.43551936,20.8734231 2,16.8379158 2,12 C2,7.16208418 5.43551936,3.1265769 10,2.20003623 L10,4.25146066 C6.50884392,5.14803287 4,8.31686345 4,12 C4,15.6831365 6.50884392,18.8519671 10,19.7485393 Z M14,2.20003623 C18.5644806,3.1265769 22,7.16208418 22,12 C22,16.8379158 18.5644806,20.8734231 14,21.7999638 L14,19.7485393 C17.4911561,18.8519671 20,15.6831365 20,12 C20,8.31686345 17.4911561,5.14803287 14,4.25146066 L14,2.20003623 Z" id="Shape" fill="#FFFFFF" fill-rule="nonzero"></path>
    </g>
</svg>