<?xml version="1.0" encoding="utf-8"?>
<!-- Generator: Adobe Illustrator 23.0.0, SVG Export Plug-In . SVG Version: 6.00 Build 0)  -->
<svg version="1.1" id="图层_1" xmlns="http://www.w3.org/2000/svg" xmlns:xlink="http://www.w3.org/1999/xlink" x="0px" y="0px"
	 viewBox="0 0 1000 1000" style="enable-background:new 0 0 1000 1000;" xml:space="preserve">
<style type="text/css">
	.st0{fill:#FFFFFF;}
</style>
<g>
	<path class="st0" d="M500,0c-0.08,0-0.16,0-0.24,0c-0.02,0-0.02,0-0.04,0c-0.06,0-0.13,0-0.19,0c-0.03,0-0.04,0-0.08,0
		c-0.03,0-0.06,0-0.1,0c-0.12,0-0.24,0-0.36,0l0.05,25l0.95,0V0L500,0L500,0z M475.01,0.61c-0.03,0-0.07,0-0.1,0
		c-0.3,0.01-0.6,0.03-0.9,0.05l1.28,24.97l0.95-0.05L475.01,0.61L475.01,0.61z M450.08,2.46c-0.33,0.03-0.67,0.07-1,0.1l2.52,24.87
		l0.95-0.09L450.08,2.46L450.08,2.46z M425.27,5.55c-0.06,0.01-0.12,0.02-0.18,0.03c-0.23,0.03-0.46,0.07-0.69,0.1
		c-0.03,0-0.09,0.01-0.12,0.02l3.75,24.72l0.94-0.14L425.27,5.55L425.27,5.55z M400.65,9.87c-0.04,0.01-0.07,0.01-0.11,0.02
		c-0.29,0.06-0.58,0.12-0.87,0.18l4.99,24.5l0.93-0.19L400.65,9.87L400.65,9.87z M376.28,15.43c-0.09,0.02-0.19,0.05-0.29,0.07
		c-0.01,0-0.03,0.01-0.04,0.01c-0.2,0.05-0.44,0.11-0.64,0.16l6.22,24.21l0.92-0.24L376.28,15.43L376.28,15.43z M352.21,22.2
		c-0.03,0.01-0.06,0.02-0.09,0.03c-0.29,0.09-0.58,0.18-0.86,0.27l7.43,23.87l0.91-0.28L352.21,22.2L352.21,22.2z M328.52,30.18
		c-0.06,0.02-0.12,0.05-0.19,0.07c-0.22,0.08-0.44,0.16-0.66,0.24c-0.03,0.01-0.06,0.02-0.09,0.03l8.62,23.47l0.89-0.33
		L328.52,30.18L328.52,30.18z M305.26,39.34c-0.31,0.13-0.61,0.26-0.92,0.39l9.79,23l0.87-0.37L305.26,39.34L305.26,39.34z
		 M282.5,49.66c-0.05,0.02-0.1,0.05-0.15,0.07c-0.24,0.12-0.51,0.25-0.75,0.36l10.93,22.48l0.85-0.41L282.5,49.66L282.5,49.66z
		 M260.27,61.11c-0.11,0.06-0.25,0.14-0.36,0.2c-0.17,0.09-0.34,0.19-0.52,0.28l12.05,21.91l0.83-0.46L260.27,61.11L260.27,61.11z
		 M238.65,73.66c-0.11,0.07-0.21,0.13-0.32,0.2c-0.18,0.11-0.35,0.22-0.53,0.33l13.13,21.28l0.81-0.5L238.65,73.66L238.65,73.66z
		 M217.69,87.27L217.69,87.27c-0.28,0.19-0.55,0.38-0.82,0.57l14.17,20.59l0.78-0.54L217.69,87.27L217.69,87.27z M197.43,101.91
		c-0.27,0.2-0.53,0.4-0.8,0.61l15.18,19.86l0.76-0.58L197.43,101.91L197.43,101.91z M177.92,117.54c-0.1,0.08-0.18,0.15-0.27,0.23
		c-0.03,0.03-0.06,0.05-0.09,0.08c-0.01,0.01-0.01,0.01-0.02,0.02c-0.13,0.11-0.25,0.21-0.38,0.32l16.15,19.08l0.73-0.61
		L177.92,117.54L177.92,117.54z M159.21,134.12c-0.08,0.07-0.16,0.15-0.24,0.23c-0.16,0.15-0.32,0.29-0.47,0.44
		c-0.01,0.01,0,0-0.02,0.01l17.08,18.26l0.69-0.65L159.21,134.12L159.21,134.12z M141.35,151.61c-0.23,0.24-0.46,0.48-0.7,0.72
		l17.97,17.39l0.66-0.68L141.35,151.61L141.35,151.61z M124.39,169.97c-0.05,0.06-0.1,0.12-0.16,0.18c-0.18,0.2-0.33,0.37-0.5,0.57
		l18.81,16.47l0.63-0.71L124.39,169.97L124.39,169.97z M108.35,189.15c-0.15,0.18-0.28,0.35-0.42,0.53c0,0.01-0.01,0.01-0.01,0.02
		c-0.02,0.02-0.03,0.03-0.05,0.06c-0.05,0.06-0.09,0.12-0.14,0.18l19.6,15.52l0.59-0.74L108.35,189.15L108.35,189.15z M93.29,209.1
		c-0.02,0.03-0.04,0.05-0.05,0.08c-0.18,0.25-0.35,0.49-0.53,0.74l20.35,14.52l0.55-0.77L93.29,209.1L93.29,209.1z M79.24,229.77
		c-0.18,0.28-0.36,0.56-0.54,0.84l21.05,13.49l0.51-0.8L79.24,229.77L79.24,229.77z M66.24,251.13c-0.09,0.16-0.18,0.32-0.28,0.48
		c-0.01,0.01-0.01,0.02-0.02,0.04c-0.06,0.11-0.14,0.24-0.2,0.35l21.7,12.42l0.47-0.82L66.24,251.13L66.24,251.13z M54.33,273.1
		c-0.11,0.21-0.22,0.42-0.32,0.63c-0.04,0.08-0.09,0.17-0.13,0.26l22.29,11.32l0.43-0.85L54.33,273.1L54.33,273.1z M43.53,295.65
		c-0.06,0.14-0.13,0.28-0.19,0.42c-0.01,0.01-0.02,0.04-0.03,0.06c0,0.01-0.01,0.02-0.01,0.02c-0.06,0.14-0.12,0.26-0.18,0.41
		l22.83,10.18l0.39-0.87L43.53,295.65L43.53,295.65z M33.88,318.71c-0.12,0.31-0.24,0.62-0.36,0.93l23.32,9.02l0.34-0.89
		L33.88,318.71L33.88,318.71z M25.4,342.22c-0.11,0.32-0.21,0.63-0.31,0.95l23.74,7.84l0.3-0.9L25.4,342.22L25.4,342.22z
		 M18.12,366.14c-0.01,0.03-0.02,0.08-0.03,0.11c-0.01,0.02-0.01,0.04-0.02,0.06c-0.01,0.03-0.03,0.1-0.03,0.13
		c0,0.02-0.01,0.03-0.01,0.05c-0.06,0.2-0.12,0.42-0.17,0.62l24.1,6.63l0.25-0.92L18.12,366.14L18.12,366.14z M12.05,390.39
		c-0.02,0.07-0.03,0.15-0.05,0.22c-0.04,0.17-0.08,0.38-0.12,0.55c-0.01,0.07-0.03,0.13-0.04,0.2l24.41,5.41l0.21-0.93L12.05,390.39
		L12.05,390.39z M7.21,414.91c-0.02,0.11-0.04,0.24-0.06,0.35c-0.04,0.21-0.07,0.42-0.11,0.64l24.65,4.17l0.16-0.93L7.21,414.91
		L7.21,414.91z M3.61,439.65c-0.02,0.14-0.03,0.28-0.05,0.41c-0.02,0.18-0.05,0.4-0.07,0.58l24.83,2.94l0.11-0.94L3.61,439.65
		L3.61,439.65z M1.24,464.53c-0.01,0.17-0.03,0.37-0.04,0.54c-0.01,0.15-0.02,0.31-0.03,0.46l24.94,1.7l0.07-0.95L1.24,464.53
		L1.24,464.53z M0.11,489.51c0,0.15-0.01,0.31-0.01,0.46c0,0.03,0,0.07,0,0.1c0,0.03,0,0.06,0,0.08c0,0.05,0,0.1,0,0.15
		c0,0.01,0,0.03,0,0.04c0,0.05,0,0.1,0,0.15l25,0.47l0.02-0.95L0.11,489.51L0.11,489.51z M25.2,513.8l-24.99,0.71
		c0,0.05,0,0.09,0,0.14c0.01,0.29,0.02,0.58,0.03,0.86l24.99-0.76L25.2,513.8L25.2,513.8z M26.46,537.53l-24.92,1.95
		c0.01,0.12,0.02,0.23,0.03,0.35c0,0.02,0,0.05,0.01,0.07c0,0.05,0.01,0.1,0.01,0.15c0,0.01,0,0.03,0,0.04
		c0.01,0.12,0.02,0.28,0.03,0.39l24.92-2L26.46,537.53L26.46,537.53z M28.9,561.16l-24.8,3.19c0.01,0.1,0.03,0.21,0.04,0.3
		c0.01,0.06,0.01,0.11,0.02,0.17c0,0.02,0,0.01,0,0.02c0.01,0.07,0.02,0.15,0.03,0.22c0.01,0.1,0.02,0.17,0.04,0.27l24.79-3.24
		L28.9,561.16L28.9,561.16z M32.51,584.63l-24.61,4.42c0.06,0.33,0.12,0.66,0.18,0.98l24.6-4.47L32.51,584.63L32.51,584.63z
		 M37.3,607.88l-24.35,5.65c0.03,0.12,0.06,0.25,0.09,0.37c0.04,0.16,0.08,0.33,0.11,0.49c0.01,0.04,0.02,0.08,0.03,0.12l24.34-5.7
		L37.3,607.88L37.3,607.88z M43.25,630.86l-24.04,6.87c0.08,0.3,0.17,0.59,0.26,0.89c0,0.02,0.02,0.05,0.02,0.07l24.02-6.92
		L43.25,630.86L43.25,630.86z M50.35,653.51l-23.66,8.08c0.01,0.02,0.01,0.02,0.01,0.03c0.01,0.03,0.02,0.05,0.03,0.08
		c0.03,0.09,0.05,0.14,0.08,0.23c0.01,0.03,0.02,0.06,0.03,0.09c0.01,0.02,0.02,0.05,0.02,0.07c0.05,0.15,0.1,0.29,0.15,0.44
		l23.64-8.12L50.35,653.51L50.35,653.51z M58.58,675.78l-23.22,9.26c0.04,0.11,0.08,0.21,0.13,0.32c0.02,0.04,0.02,0.05,0.04,0.1
		c0,0.01,0.01,0.01,0.01,0.02c0.06,0.16,0.13,0.33,0.2,0.49l23.2-9.3L58.58,675.78L58.58,675.78z M67.92,697.6l-22.73,10.41
		c0.11,0.24,0.23,0.51,0.35,0.75c0.02,0.05,0.05,0.1,0.07,0.15l22.71-10.46L67.92,697.6L67.92,697.6z M78.35,718.93l-22.18,11.54
		c0.06,0.11,0.12,0.22,0.18,0.34c0.01,0.02,0.02,0.03,0.02,0.05c0.01,0.03,0.03,0.05,0.04,0.08c0.03,0.06,0.06,0.11,0.09,0.17
		c0.01,0.01,0.02,0.03,0.02,0.04c0,0,0,0,0,0.01c0.04,0.07,0.07,0.13,0.1,0.2l22.15-11.58L78.35,718.93L78.35,718.93z M89.83,739.71
		l-21.57,12.64c0.08,0.13,0.16,0.27,0.23,0.4c0.07,0.12,0.15,0.26,0.22,0.38c0.02,0.03,0.03,0.06,0.05,0.08l21.55-12.68
		L89.83,739.71L89.83,739.71z M102.34,759.9l-20.91,13.7c0.18,0.28,0.37,0.56,0.55,0.84l20.89-13.74L102.34,759.9L102.34,759.9z
		 M115.85,779.44l-20.2,14.72c0.07,0.1,0.15,0.2,0.22,0.31c0.01,0.02,0.03,0.04,0.04,0.06c0.02,0.03,0.02,0.02,0.03,0.05
		c0.04,0.05,0.08,0.11,0.12,0.16c0.06,0.08,0.12,0.16,0.17,0.24l20.18-14.76L115.85,779.44L115.85,779.44z M130.31,798.28
		l-19.45,15.71c0.13,0.16,0.25,0.31,0.38,0.47c0.02,0.02,0.04,0.05,0.06,0.07c0.01,0.01,0.02,0.02,0.03,0.04
		c0.06,0.07,0.1,0.13,0.16,0.2l19.42-15.75L130.31,798.28L130.31,798.28z M145.69,816.38l-18.64,16.66c0.1,0.12,0.21,0.24,0.32,0.36
		c0,0.01,0.01,0.01,0.01,0.02l0,0c0.09,0.1,0.19,0.21,0.28,0.31c0.02,0.02,0.03,0.04,0.05,0.06l18.61-16.7L145.69,816.38
		L145.69,816.38z M161.96,833.7l-17.79,17.56c0.23,0.24,0.47,0.47,0.7,0.71l17.76-17.6L161.96,833.7L161.96,833.7z M179.06,850.18
		l-16.9,18.43c0.03,0.03,0.04,0.04,0.07,0.07c0.15,0.13,0.29,0.27,0.44,0.4c0.08,0.07,0.15,0.13,0.23,0.21l16.86-18.46
		L179.06,850.18L179.06,850.18z M196.96,865.8L181,885.04c0.01,0.01,0.04,0.03,0.05,0.04c0.24,0.2,0.48,0.4,0.72,0.6l15.92-19.27
		L196.96,865.8L196.96,865.8z M215.62,880.5l-14.98,20.01c0.01,0.01,0.03,0.02,0.04,0.03c0.02,0.01,0.03,0.03,0.05,0.04l0.02,0.01
		c0.06,0.04,0.11,0.08,0.17,0.13c0.01,0.01,0.03,0.02,0.04,0.03c0.02,0.01,0.04,0.03,0.05,0.04c0.15,0.11,0.28,0.21,0.43,0.32
		l14.94-20.04L215.62,880.5L215.62,880.5z M234.98,894.26l-13.97,20.73c0.12,0.08,0.24,0.16,0.35,0.24
		c0.01,0.01,0.03,0.02,0.04,0.03l0.02,0.02c0.14,0.09,0.27,0.18,0.41,0.27l13.93-20.76L234.98,894.26L234.98,894.26z M255,907.03
		l-12.91,21.41c0.12,0.07,0.24,0.14,0.35,0.21c0.17,0.11,0.33,0.2,0.5,0.3l12.87-21.43L255,907.03L255,907.03z M275.64,918.78
		l-11.83,22.03c0.13,0.07,0.27,0.14,0.4,0.21c0.17,0.09,0.32,0.17,0.48,0.26l11.78-22.05L275.64,918.78L275.64,918.78z
		 M296.83,929.49l-10.71,22.59c0.13,0.06,0.26,0.12,0.39,0.18c0.17,0.08,0.35,0.16,0.52,0.25l10.66-22.61L296.83,929.49
		L296.83,929.49z M318.53,939.11l-9.56,23.1c0.31,0.13,0.62,0.25,0.93,0.38l9.51-23.12L318.53,939.11L318.53,939.11z M340.69,947.63
		l-8.38,23.55c0.2,0.07,0.4,0.14,0.6,0.21c0.02,0.01,0.03,0.01,0.05,0.02c0.11,0.04,0.19,0.07,0.3,0.11l8.34-23.57L340.69,947.63
		L340.69,947.63z M363.25,955.03l-7.19,23.95c0.08,0.02,0.12,0.04,0.2,0.06c0.01,0,0.01,0,0.02,0.01c0.05,0.01,0.07,0.02,0.11,0.03
		c0.03,0.01,0.05,0.02,0.08,0.02c0.18,0.06,0.36,0.11,0.54,0.16l7.14-23.96L363.25,955.03L363.25,955.03z M386.15,961.27
		l-5.97,24.28c0.24,0.06,0.48,0.12,0.71,0.18c0.08,0.02,0.18,0.04,0.26,0.06l5.92-24.29L386.15,961.27L386.15,961.27z
		 M409.33,966.36l-4.74,24.55c0.26,0.05,0.5,0.1,0.75,0.14c0.08,0.01,0.15,0.03,0.23,0.04l4.69-24.56L409.33,966.36L409.33,966.36z
		 M432.75,970.28l-3.51,24.75c0.22,0.03,0.44,0.06,0.67,0.09c0.1,0.01,0.22,0.03,0.32,0.05l3.46-24.76L432.75,970.28L432.75,970.28z
		 M456.34,973.02l-2.27,24.9c0.33,0.03,0.66,0.06,1,0.09l2.22-24.9L456.34,973.02L456.34,973.02z M480.05,974.59l-1.03,24.98
		c0.13,0.01,0.26,0.01,0.4,0.02c0.02,0,0.05,0,0.07,0c0.05,0,0.07,0,0.12,0c0.03,0,0.06,0,0.09,0c0.05,0,0.12,0,0.17,0.01
		c0,0,0.01,0,0.01,0c0.05,0,0.09,0,0.14,0.01l0.98-24.98L480.05,974.59L480.05,974.59z M504.78,974.98l-0.95,0.01l0.2,25
		c0.34,0,0.66-0.01,1-0.01L504.78,974.98L504.78,974.98z M528.53,974.16l-0.95,0.06l1.43,24.96c0.12-0.01,0.22-0.01,0.34-0.02
		c0.2-0.01,0.4-0.02,0.6-0.04c0.02,0,0.04,0,0.06,0L528.53,974.16L528.53,974.16z M552.21,972.17l-0.95,0.1l2.67,24.86
		c0.02,0,0.05-0.01,0.07-0.01c0.21-0.02,0.42-0.05,0.63-0.07c0.09-0.01,0.18-0.02,0.27-0.03l0.02,0L552.21,972.17L552.21,972.17z
		 M575.74,969l-0.94,0.15l3.9,24.69c0.11-0.02,0.22-0.03,0.33-0.05c0.02,0,0.05-0.01,0.07-0.01c0.03-0.01,0.07-0.01,0.1-0.02
		c0.06-0.01,0.13-0.02,0.19-0.03c0.1-0.02,0.19-0.03,0.28-0.05L575.74,969L575.74,969z M599.08,964.66l-0.93,0.2l5.14,24.47
		c0.33-0.07,0.65-0.14,0.98-0.21L599.08,964.66L599.08,964.66z M622.17,959.15l-0.92,0.24l6.36,24.18c0.05-0.01,0.08-0.02,0.13-0.03
		c0.2-0.05,0.4-0.1,0.6-0.16c0.09-0.02,0.15-0.04,0.24-0.06L622.17,959.15L622.17,959.15z M644.96,952.48l-0.9,0.29l7.57,23.83
		c0.22-0.07,0.44-0.14,0.67-0.21c0.09-0.03,0.19-0.06,0.29-0.09L644.96,952.48L644.96,952.48z M667.37,944.68l-0.89,0.33l8.76,23.41
		c0.07-0.03,0.15-0.06,0.23-0.09c0.02-0.01,0.05-0.02,0.07-0.03c0.21-0.08,0.42-0.16,0.63-0.24L667.37,944.68L667.37,944.68z
		 M689.37,935.76l-0.87,0.38l9.93,22.94c0.09-0.04,0.18-0.08,0.27-0.12c0.03-0.01,0.07-0.03,0.1-0.04c0.03-0.01,0.05-0.02,0.08-0.03
		c0.01-0.01,0.02-0.01,0.04-0.02c0.15-0.06,0.29-0.13,0.44-0.19L689.37,935.76L689.37,935.76z M710.9,925.74l-0.85,0.42l11.07,22.42
		c0.28-0.14,0.57-0.28,0.85-0.42c0.01-0.01,0.03-0.01,0.04-0.02L710.9,925.74L710.9,925.74z M731.89,914.65l-0.83,0.46l12.18,21.83
		c0.05-0.03,0.1-0.05,0.14-0.08c0.25-0.14,0.48-0.27,0.73-0.41L731.89,914.65L731.89,914.65z M752.31,902.53l-0.81,0.5l13.26,21.2
		c0.17-0.11,0.34-0.21,0.51-0.32c0.11-0.07,0.22-0.14,0.33-0.21L752.31,902.53L752.31,902.53z M772.1,889.39l-0.78,0.54l14.3,20.51
		c0.09-0.06,0.16-0.11,0.25-0.17c0.19-0.13,0.38-0.27,0.57-0.4L772.1,889.39L772.1,889.39z M791.21,875.29l-0.75,0.58l15.3,19.77
		c0.12-0.09,0.24-0.19,0.36-0.28c0.14-0.11,0.29-0.23,0.43-0.33L791.21,875.29L791.21,875.29z M809.6,860.25l-0.72,0.62l16.27,18.98
		c0.01-0.01,0.01-0.01,0.03-0.02c0.24-0.21,0.49-0.42,0.73-0.63L809.6,860.25L809.6,860.25z M827.22,844.32l-0.69,0.65l17.19,18.15
		c0.12-0.11,0.24-0.23,0.36-0.34l0,0c0.05-0.04,0.09-0.09,0.14-0.13c0.07-0.06,0.16-0.15,0.22-0.21L827.22,844.32L827.22,844.32z
		 M844.02,827.53l-0.66,0.69l18.07,17.28c0.23-0.24,0.46-0.48,0.69-0.72L844.02,827.53L844.02,827.53z M859.97,809.92l-0.62,0.72
		L878.26,827c0.08-0.09,0.16-0.18,0.24-0.27c0.13-0.15,0.28-0.33,0.42-0.48L859.97,809.92L859.97,809.92z M875.03,791.55l-0.58,0.75
		l19.7,15.4l0.01-0.01c0.05-0.06,0.09-0.12,0.14-0.18c0.02-0.02,0.02-0.03,0.04-0.05c0.03-0.04,0.06-0.08,0.09-0.12
		c0.02-0.02,0.04-0.05,0.06-0.08c0.03-0.03,0.05-0.07,0.08-0.1c0.02-0.02,0.05-0.06,0.07-0.09c0.01-0.01,0.02-0.02,0.02-0.03
		c0.03-0.04,0.08-0.1,0.11-0.14L875.03,791.55L875.03,791.55z M889.15,772.45l-0.55,0.78l20.44,14.4c0.08-0.12,0.17-0.24,0.25-0.35
		c0.06-0.09,0.13-0.19,0.2-0.28c0.04-0.06,0.09-0.12,0.13-0.19L889.15,772.45L889.15,772.45z M902.3,752.67l-0.51,0.8l21.13,13.36
		c0.18-0.28,0.36-0.57,0.53-0.85L902.3,752.67L902.3,752.67z M914.44,732.27l-0.47,0.83l21.77,12.29c0.16-0.29,0.33-0.58,0.49-0.87
		L914.44,732.27L914.44,732.27z M925.55,711.28l-0.42,0.85l22.36,11.18c0.15-0.3,0.3-0.6,0.45-0.9L925.55,711.28L925.55,711.28z
		 M935.59,689.76l-0.38,0.87l22.89,10.04c0.01-0.03,0.03-0.06,0.04-0.09c0.1-0.24,0.21-0.47,0.31-0.71
		c0.01-0.03,0.04-0.09,0.05-0.12L935.59,689.76L935.59,689.76z M944.53,667.77l-0.34,0.89l23.37,8.88c0.01-0.03,0.01-0.02,0.02-0.05
		c0.11-0.29,0.22-0.59,0.33-0.88L944.53,667.77L944.53,667.77z M952.35,645.36l-0.29,0.9l23.79,7.69c0.05-0.17,0.11-0.34,0.16-0.5
		c0.05-0.15,0.1-0.3,0.14-0.45L952.35,645.36L952.35,645.36z M959.04,622.58l-0.25,0.92l24.14,6.48c0.02-0.06,0.02-0.09,0.04-0.15
		c0-0.01,0-0.01,0.01-0.02c0.01-0.05,0.02-0.08,0.03-0.12c0.05-0.18,0.09-0.35,0.14-0.53c0.01-0.05,0.02-0.09,0.04-0.14
		L959.04,622.58L959.04,622.58z M964.57,599.5l-0.2,0.93l24.44,5.26c0.01-0.03,0.01-0.06,0.02-0.09c0.06-0.29,0.13-0.59,0.19-0.88
		l0,0L964.57,599.5L964.57,599.5z M968.93,576.16l-0.15,0.94l24.67,4.03c0.01-0.07,0.02-0.14,0.03-0.21
		c0.02-0.15,0.05-0.32,0.08-0.47c0.02-0.1,0.03-0.21,0.05-0.31L968.93,576.16L968.93,576.16z M972.12,552.63l-0.1,0.94l24.84,2.79
		c0-0.02,0,0,0-0.02c0.02-0.19,0.04-0.38,0.06-0.57c0.02-0.15,0.03-0.26,0.04-0.41L972.12,552.63L972.12,552.63z M974.13,528.96
		l-0.06,0.95l24.95,1.55c0.02-0.33,0.04-0.67,0.06-1L974.13,528.96L974.13,528.96z M974.97,505.21l-0.01,0.95l25,0.32
		c0-0.07,0-0.14,0-0.2c0-0.01,0-0.01,0-0.02c0-0.07,0-0.12,0-0.19c0,0,0-0.01,0-0.01c0-0.12,0-0.22,0-0.33c0-0.08,0-0.16,0-0.24
		L974.97,505.21L974.97,505.21z M999.63,480.47l-24.98,0.96l0.04,0.95l24.98-0.91c0-0.09-0.01-0.18-0.01-0.27
		C999.64,480.96,999.63,480.7,999.63,480.47L999.63,480.47z M998.05,455.52l-24.9,2.2l0.08,0.95l24.91-2.15
		c-0.01-0.12-0.02-0.2-0.03-0.31C998.09,455.97,998.07,455.75,998.05,455.52L998.05,455.52z M995.23,430.68l-24.76,3.43l0.13,0.94
		l24.77-3.38c-0.03-0.24-0.06-0.47-0.1-0.71C995.26,430.86,995.25,430.78,995.23,430.68L995.23,430.68z M991.18,406.01l-24.56,4.67
		l0.18,0.93l24.57-4.62c-0.04-0.2-0.08-0.41-0.11-0.61C991.23,406.26,991.2,406.14,991.18,406.01L991.18,406.01z M985.89,381.58
		l-24.29,5.9l0.22,0.92l24.31-5.85c-0.03-0.11-0.05-0.2-0.07-0.31C986,382.03,985.95,381.8,985.89,381.58L985.89,381.58z
		 M979.39,357.45l-23.97,7.12l0.27,0.91l23.98-7.07c-0.06-0.2-0.13-0.42-0.18-0.62c0-0.01-0.01-0.03-0.01-0.04
		c-0.02-0.06-0.03-0.09-0.05-0.15c0-0.01,0-0.01-0.01-0.02C979.41,357.52,979.4,357.49,979.39,357.45L979.39,357.45z M971.67,333.67
		l-23.58,8.31l0.31,0.89l23.59-8.27c-0.01-0.02-0.01-0.02-0.01-0.03C971.88,334.28,971.78,333.98,971.67,333.67L971.67,333.67z
		 M962.76,310.31l-23.13,9.49l0.36,0.88l23.15-9.44C963.02,310.93,962.89,310.62,962.76,310.31L962.76,310.31z M952.7,287.43
		l-22.62,10.64l0.4,0.86l22.64-10.6C952.98,288.04,952.84,287.74,952.7,287.43L952.7,287.43z M941.49,265.09l-22.06,11.76l0.45,0.84
		l22.08-11.72C941.81,265.68,941.65,265.38,941.49,265.09L941.49,265.09z M929.18,243.33l-21.44,12.85l0.49,0.82l21.47-12.81
		C929.52,243.89,929.36,243.63,929.18,243.33L929.18,243.33z M915.8,222.22l-20.78,13.91l0.53,0.79l20.8-13.87
		c-0.11-0.17-0.22-0.33-0.34-0.5c-0.06-0.09-0.12-0.18-0.19-0.28C915.81,222.24,915.82,222.24,915.8,222.22L915.8,222.22z
		 M901.38,201.8l-20.06,14.92l0.57,0.76l20.09-14.88c-0.1-0.14-0.21-0.28-0.31-0.42c-0.04-0.06-0.09-0.12-0.13-0.18
		c-0.01-0.01-0.01-0.01-0.02-0.02c-0.02-0.03-0.04-0.05-0.06-0.08C901.42,201.85,901.41,201.83,901.38,201.8L901.38,201.8z
		 M885.96,182.12l-19.29,15.9l0.6,0.73l19.32-15.87C886.39,182.64,886.17,182.37,885.96,182.12L885.96,182.12z M869.58,163.23
		l-18.47,16.84l0.64,0.7l18.51-16.81C870.03,163.73,869.81,163.48,869.58,163.23L869.58,163.23z M852.29,145.19l-17.61,17.74
		l0.67,0.67L853,145.89c-0.05-0.05-0.1-0.1-0.15-0.15c-0.03-0.03-0.05-0.05-0.09-0.09c0,0,0,0,0,0c-0.07-0.07-0.13-0.13-0.2-0.2
		C852.47,145.37,852.38,145.28,852.29,145.19L852.29,145.19z M834.12,128.02l-16.71,18.59l0.71,0.64l16.75-18.56
		c-0.14-0.13-0.29-0.26-0.43-0.38C834.33,128.21,834.22,128.11,834.12,128.02L834.12,128.02z M815.12,111.78l-15.77,19.4l0.74,0.6
		l15.81-19.37c-0.15-0.12-0.29-0.23-0.43-0.35C815.35,111.96,815.23,111.87,815.12,111.78L815.12,111.78z M795.33,96.5l-14.78,20.16
		l0.77,0.56l14.82-20.13c-0.07-0.05-0.13-0.1-0.2-0.15c-0.01-0.01,0,0-0.01-0.01c-0.04-0.03-0.09-0.06-0.13-0.1
		C795.64,96.73,795.48,96.61,795.33,96.5L795.33,96.5z M774.81,82.22l-13.76,20.87l0.79,0.52l13.8-20.85
		C775.36,82.59,775.09,82.41,774.81,82.22L774.81,82.22z M753.6,68.99l-12.7,21.54l0.82,0.48l12.74-21.51l-0.01,0
		c-0.04-0.02-0.08-0.05-0.12-0.07C754.09,69.28,753.84,69.14,753.6,68.99L753.6,68.99z M731.75,56.84l-11.6,22.14l0.84,0.44
		l11.65-22.12c-0.06-0.03-0.12-0.06-0.17-0.09c-0.04-0.02-0.08-0.04-0.12-0.06c-0.01-0.01-0.03-0.01-0.04-0.02
		c-0.04-0.02-0.1-0.05-0.14-0.07C732.03,56.98,731.89,56.91,731.75,56.84L731.75,56.84z M709.33,45.8l-10.48,22.7l0.86,0.4
		l10.52-22.68C709.92,46.07,709.65,45.94,709.33,45.8L709.33,45.8z M686.38,35.89l-9.32,23.2l0.88,0.35l9.37-23.18
		c-0.03-0.01-0.03-0.01-0.06-0.03c-0.01,0-0.02-0.01-0.03-0.01c-0.22-0.09-0.44-0.18-0.66-0.27
		C686.49,35.94,686.44,35.92,686.38,35.89L686.38,35.89z M662.96,27.16l-8.14,23.64l0.9,0.31l8.19-23.62
		c-0.04-0.01-0.07-0.02-0.11-0.04c-0.06-0.02-0.09-0.03-0.15-0.05C663.42,27.32,663.19,27.24,662.96,27.16L662.96,27.16z
		 M639.13,19.61l-6.94,24.02l0.91,0.26l6.99-24c-0.05-0.01-0.12-0.03-0.16-0.05C639.66,19.76,639.39,19.69,639.13,19.61
		L639.13,19.61z M614.94,13.28l-5.73,24.34l0.92,0.22l5.77-24.32c-0.11-0.03-0.2-0.05-0.31-0.07c-0.03-0.01-0.06-0.02-0.1-0.02
		c-0.05-0.01-0.09-0.02-0.13-0.03c0,0,0,0-0.01,0C615.23,13.34,615.09,13.31,614.94,13.28L614.94,13.28z M590.48,8.16l-4.49,24.59
		l0.93,0.17l4.54-24.58c-0.14-0.03-0.29-0.05-0.43-0.08c-0.01,0-0.03,0-0.04-0.01c-0.02,0-0.02,0-0.03-0.01
		C590.79,8.22,590.63,8.19,590.48,8.16L590.48,8.16z M565.78,4.29l-3.26,24.79l0.94,0.12l3.31-24.78c-0.16-0.02-0.32-0.04-0.47-0.06
		c-0.02,0-0.03,0-0.05-0.01c-0.03,0-0.06-0.01-0.08-0.01C566.04,4.32,565.91,4.31,565.78,4.29L565.78,4.29z M540.92,1.65
		l-2.02,24.92l0.95,0.08l2.07-24.91C541.59,1.7,541.25,1.68,540.92,1.65L540.92,1.65z M515.96,0.25l-0.78,24.99l0.95,0.03
		l0.83-24.99c-0.02,0-0.02,0-0.03,0c-0.31-0.01-0.61-0.02-0.92-0.03C516,0.25,515.98,0.25,515.96,0.25L515.96,0.25z"/>
</g>
</svg>
