<?xml version="1.0" encoding="utf-8"?>
<!-- Generator: Adobe Illustrator 23.0.0, SVG Export Plug-In . SVG Version: 6.00 Build 0)  -->
<svg version="1.1" id="图层_1" xmlns="http://www.w3.org/2000/svg" xmlns:xlink="http://www.w3.org/1999/xlink" x="0px" y="0px"
	 viewBox="0 0 1000 1000" style="enable-background:new 0 0 1000 1000;" xml:space="preserve">
<style type="text/css">
	.st0{fill:#FFFFFF;}
</style>
<g>
	<path class="st0" d="M500,0c-0.08,0-0.16,0-0.24,0c-0.02,0-0.02,0-0.04,0c-0.06,0-0.13,0-0.19,0c-0.03,0-0.04,0-0.08,0
		c-0.03,0-0.06,0-0.1,0c-0.12,0-0.24,0-0.36,0l0.05,25l0.95,0V0L500,0L500,0z M465.02,1.2c-0.08,0.01-0.17,0.01-0.25,0.02
		c-0.18,0.01-0.35,0.02-0.53,0.04c-0.08,0.01-0.13,0.01-0.21,0.02l1.77,24.94l0.95-0.07L465.02,1.2L465.02,1.2z M430.22,4.83
		c-0.16,0.02-0.31,0.04-0.47,0.07c-0.17,0.02-0.34,0.05-0.51,0.07l3.51,24.75l0.94-0.13L430.22,4.83L430.22,4.83z M395.75,10.88
		c-0.03,0.01-0.08,0.02-0.11,0.02c-0.21,0.04-0.41,0.09-0.62,0.13c-0.1,0.02-0.16,0.03-0.26,0.05l5.24,24.45l0.93-0.2L395.75,10.88
		L395.75,10.88z M361.8,19.35c-0.07,0.02-0.15,0.04-0.22,0.06c-0.25,0.07-0.5,0.14-0.74,0.21l6.95,24.02l0.91-0.26L361.8,19.35
		L361.8,19.35z M328.52,30.18c-0.06,0.02-0.12,0.05-0.19,0.07c-0.22,0.08-0.44,0.16-0.66,0.24c-0.03,0.01-0.06,0.02-0.09,0.03
		l8.62,23.47l0.89-0.33L328.52,30.18L328.52,30.18z M296.1,43.33c-0.06,0.03-0.12,0.05-0.17,0.08c-0.03,0.01-0.08,0.03-0.11,0.05
		c-0.02,0.01-0.03,0.01-0.05,0.02l-0.04,0.02c-0.18,0.08-0.36,0.16-0.55,0.25l10.25,22.8l0.87-0.39L296.1,43.33L296.1,43.33z
		 M264.67,58.73c-0.24,0.13-0.5,0.27-0.73,0.39c-0.05,0.03-0.1,0.05-0.15,0.08l11.83,22.03l0.84-0.45L264.67,58.73L264.67,58.73z
		 M234.41,76.29c-0.04,0.03-0.09,0.06-0.13,0.08c-0.11,0.07-0.22,0.14-0.33,0.21c-0.13,0.08-0.26,0.16-0.39,0.24l13.34,21.14
		l0.8-0.51L234.41,76.29L234.41,76.29z M205.44,95.93c-0.27,0.19-0.54,0.4-0.81,0.59l14.78,20.16l0.77-0.56L205.44,95.93
		L205.44,95.93z M177.92,117.54c-0.1,0.08-0.18,0.15-0.27,0.23c-0.03,0.03-0.06,0.05-0.09,0.08c-0.01,0.01-0.01,0.01-0.02,0.02
		c-0.13,0.11-0.25,0.21-0.38,0.32l16.15,19.08l0.73-0.61L177.92,117.54L177.92,117.54z M151.97,141.01
		c-0.06,0.05-0.13,0.13-0.19,0.18c-0.05,0.05-0.1,0.1-0.16,0.15c-0.02,0.02-0.05,0.05-0.07,0.07c-0.01,0.01-0.03,0.03-0.04,0.04
		c-0.09,0.09-0.17,0.17-0.26,0.25l17.44,17.91l0.68-0.66L151.97,141.01L151.97,141.01z M127.71,166.23
		c-0.05,0.06-0.11,0.12-0.16,0.18l-0.01,0.02c-0.03,0.03-0.06,0.06-0.08,0.09c-0.14,0.15-0.27,0.31-0.41,0.46l18.64,16.66l0.63-0.71
		L127.71,166.23L127.71,166.23z M105.26,193.08c-0.15,0.19-0.3,0.38-0.44,0.57c-0.06,0.07-0.11,0.15-0.17,0.22l19.76,15.32
		l0.58-0.75L105.26,193.08L105.26,193.08z M84.74,221.42c-0.04,0.06-0.08,0.12-0.12,0.17c-0.03,0.04-0.04,0.05-0.06,0.09
		c0,0.01-0.01,0.01-0.01,0.02c-0.12,0.18-0.24,0.36-0.36,0.54l20.78,13.91l0.53-0.79L84.74,221.42L84.74,221.42z M66.24,251.13
		c-0.09,0.16-0.18,0.32-0.28,0.48c-0.01,0.01-0.01,0.02-0.02,0.04c-0.06,0.11-0.14,0.24-0.2,0.35l21.7,12.42l0.47-0.82L66.24,251.13
		L66.24,251.13z M49.87,282.06c-0.15,0.31-0.28,0.59-0.44,0.9l22.52,10.87l0.41-0.85L49.87,282.06L49.87,282.06z M35.72,314.06
		c-0.12,0.29-0.23,0.58-0.35,0.88c-0.01,0.01-0.01,0.04-0.02,0.05l23.22,9.26l0.35-0.88L35.72,314.06L35.72,314.06z M23.85,346.98
		c-0.01,0.03-0.02,0.05-0.03,0.08c-0.09,0.29-0.19,0.58-0.28,0.87l23.82,7.6l0.29-0.9L23.85,346.98L23.85,346.98z M14.33,380.65
		c-0.04,0.16-0.08,0.32-0.12,0.48l0,0.01c-0.01,0.06-0.03,0.12-0.04,0.18c-0.01,0.03-0.01,0.05-0.02,0.08
		c-0.02,0.07-0.03,0.14-0.05,0.21l0,0l24.29,5.9l0.22-0.92L14.33,380.65L14.33,380.65z M7.21,414.91c-0.02,0.11-0.04,0.24-0.06,0.35
		c-0.04,0.21-0.07,0.42-0.11,0.64l24.65,4.17l0.16-0.93L7.21,414.91L7.21,414.91z M2.51,449.59c-0.03,0.33-0.07,0.66-0.1,1
		l24.88,2.44l0.09-0.95L2.51,449.59L2.51,449.59z M0.24,484.51c-0.01,0.33-0.02,0.67-0.03,1l24.99,0.71l0.03-0.95L0.24,484.51
		L0.24,484.51z M25.36,518.56l-24.98,0.96c0,0.04,0,0.08,0,0.12c0.01,0.3,0.02,0.58,0.03,0.88l24.98-1.01L25.36,518.56L25.36,518.56
		z M27.78,551.72l-24.85,2.69c0.03,0.24,0.05,0.48,0.08,0.72c0,0.02,0,0.04,0.01,0.05c0.01,0.06,0.01,0.12,0.02,0.17
		c0,0.02,0,0.03,0,0.04l24.85-2.74L27.78,551.72L27.78,551.72z M32.51,584.63l-24.61,4.42c0.06,0.33,0.12,0.66,0.18,0.98l24.6-4.47
		L32.51,584.63L32.51,584.63z M39.54,617.11l-24.23,6.14c0.08,0.31,0.17,0.66,0.25,0.97l24.22-6.19L39.54,617.11L39.54,617.11z
		 M48.83,649.01l-23.74,7.84c0.09,0.27,0.19,0.58,0.28,0.85c0.01,0.03,0.02,0.07,0.03,0.1l23.72-7.88L48.83,649.01L48.83,649.01z
		 M60.36,680.18l-23.13,9.49c0.01,0.03,0.02,0.05,0.03,0.08c0.11,0.28,0.23,0.57,0.35,0.85l23.11-9.54L60.36,680.18L60.36,680.18z
		 M74.05,710.46l-22.4,11.09c0.15,0.3,0.3,0.6,0.44,0.9l22.38-11.14L74.05,710.46L74.05,710.46z M89.83,739.71l-21.57,12.64
		c0.08,0.13,0.16,0.27,0.23,0.4c0.07,0.12,0.15,0.26,0.22,0.38c0.02,0.03,0.03,0.06,0.05,0.08l21.55-12.68L89.83,739.71
		L89.83,739.71z M107.63,767.79l-20.64,14.11c0.15,0.22,0.3,0.44,0.46,0.66c0.04,0.05,0.07,0.11,0.11,0.16l20.61-14.15
		L107.63,767.79L107.63,767.79z M127.34,794.57l-19.6,15.52c0.1,0.13,0.2,0.25,0.3,0.38c0.11,0.13,0.22,0.27,0.32,0.41l19.57-15.56
		L127.34,794.57L127.34,794.57z M148.88,819.91l-18.47,16.84c0.19,0.21,0.38,0.41,0.57,0.62c0.04,0.04,0.07,0.08,0.11,0.12
		l18.44-16.88L148.88,819.91L148.88,819.91z M172.12,843.69l-17.26,18.09c0.12,0.11,0.24,0.22,0.35,0.34
		c0.02,0.02,0.04,0.04,0.06,0.06c0.01,0.01,0.02,0.02,0.03,0.03c0.09,0.09,0.19,0.18,0.28,0.27l17.22-18.12L172.12,843.69
		L172.12,843.69z M196.96,865.8L181,885.04c0.01,0.01,0.04,0.03,0.05,0.04c0.24,0.2,0.48,0.4,0.72,0.6l15.92-19.27L196.96,865.8
		L196.96,865.8z M223.28,886.12l-14.58,20.31c0.06,0.05,0.13,0.09,0.19,0.14c0.22,0.16,0.4,0.29,0.62,0.44l14.54-20.34
		L223.28,886.12L223.28,886.12z M250.95,904.56l-13.13,21.28c0.28,0.18,0.57,0.35,0.85,0.52l13.08-21.3L250.95,904.56L250.95,904.56
		z M279.83,921.01l-11.6,22.14c0.14,0.07,0.27,0.14,0.41,0.21c0.09,0.05,0.17,0.09,0.26,0.14c0.07,0.04,0.15,0.08,0.22,0.11
		l11.56-22.17L279.83,921.01L279.83,921.01z M309.79,935.39l-10.02,22.9c0.26,0.11,0.54,0.24,0.81,0.35
		c0.04,0.02,0.07,0.03,0.11,0.05l9.97-22.92L309.79,935.39L309.79,935.39z M340.69,947.63l-8.38,23.55c0.2,0.07,0.4,0.14,0.6,0.21
		c0.02,0.01,0.03,0.01,0.05,0.02c0.11,0.04,0.19,0.07,0.3,0.11l8.34-23.57L340.69,947.63L340.69,947.63z M372.37,957.66l-6.7,24.08
		c0.32,0.09,0.63,0.18,0.95,0.26c0.02,0,0,0,0.01,0l6.65-24.1L372.37,957.66L372.37,957.66z M404.68,965.44l-4.99,24.5
		c0.16,0.03,0.31,0.06,0.47,0.1c0.17,0.04,0.34,0.07,0.51,0.1l4.94-24.51L404.68,965.44L404.68,965.44z M437.46,970.92l-3.26,24.79
		c0.33,0.04,0.66,0.09,0.99,0.13l3.21-24.79L437.46,970.92L437.46,970.92z M470.56,974.1l-1.52,24.95c0.16,0.01,0.32,0.02,0.48,0.03
		c0.02,0,0.05,0,0.06,0c0.07,0,0.14,0.01,0.2,0.01l0.01,0c0.08,0,0.16,0.01,0.25,0.01l1.48-24.96L470.56,974.1L470.56,974.1z
		 M504.78,974.98l-0.95,0.01l0.2,25c0.34,0,0.66-0.01,1-0.01L504.78,974.98L504.78,974.98z M538.01,973.5l-0.95,0.07l1.92,24.93
		c0.07-0.01,0.09-0.01,0.16-0.01c0.22-0.02,0.43-0.03,0.65-0.05c0.07-0.01,0.12-0.01,0.19-0.01L538.01,973.5L538.01,973.5z
		 M571.04,969.73l-0.94,0.14l3.66,24.73c0.02,0,0.02,0,0.04-0.01c0.3-0.05,0.61-0.09,0.91-0.14c0.02,0,0.02,0,0.04-0.01
		L571.04,969.73L571.04,969.73z M603.72,963.65l-0.93,0.21l5.38,24.41c0.19-0.04,0.37-0.08,0.55-0.12c0.02,0,0.03-0.01,0.05-0.01
		c0.11-0.02,0.26-0.06,0.37-0.08L603.72,963.65L603.72,963.65z M635.88,955.29l-0.91,0.27l7.09,23.97c0.07-0.02,0.15-0.04,0.22-0.07
		c0.25-0.07,0.49-0.15,0.73-0.22L635.88,955.29L635.88,955.29z M667.37,944.68l-0.89,0.33l8.76,23.41c0.07-0.03,0.15-0.06,0.23-0.09
		c0.02-0.01,0.05-0.02,0.07-0.03c0.21-0.08,0.42-0.16,0.63-0.24L667.37,944.68L667.37,944.68z M698.04,931.88l-0.86,0.4l10.39,22.74
		l0.03-0.02c0.29-0.13,0.58-0.27,0.88-0.4L698.04,931.88L698.04,931.88z M727.74,916.95l-0.83,0.46l11.96,21.95
		c0.12-0.07,0.25-0.13,0.37-0.2c0.17-0.09,0.34-0.19,0.51-0.28L727.74,916.95L727.74,916.95z M756.32,899.98l-0.8,0.51l13.47,21.06
		c0.09-0.06,0.16-0.1,0.26-0.16c0.2-0.13,0.39-0.25,0.59-0.38L756.32,899.98L756.32,899.98z M783.65,881.05l-0.76,0.57l14.9,20.07
		c0.26-0.2,0.54-0.4,0.8-0.6L783.65,881.05L783.65,881.05z M809.6,860.25l-0.72,0.62l16.27,18.98c0.01-0.01,0.01-0.01,0.03-0.02
		c0.24-0.21,0.49-0.42,0.73-0.63L809.6,860.25L809.6,860.25z M834.04,837.7l-0.68,0.67l17.55,17.81l0.02-0.02
		c0.05-0.05,0.1-0.1,0.15-0.15l0.01-0.01c0.05-0.05,0.09-0.09,0.14-0.14c0.02-0.02,0.03-0.03,0.05-0.05
		c0.02-0.02,0.04-0.04,0.06-0.06c0.09-0.09,0.19-0.19,0.28-0.27L834.04,837.7L834.04,837.7z M856.85,813.51l-0.63,0.71l18.74,16.55
		c0.12-0.14,0.24-0.27,0.36-0.41c0.09-0.11,0.19-0.21,0.28-0.32c0.01-0.01,0,0,0.01-0.02L856.85,813.51L856.85,813.51z
		 M877.93,787.79l-0.58,0.75l19.85,15.2c0.08-0.1,0.18-0.23,0.25-0.33c0.06-0.08,0.12-0.16,0.18-0.24c0.02-0.02,0.03-0.04,0.05-0.06
		c0.03-0.04,0.06-0.07,0.08-0.11c0.02-0.02,0.02-0.03,0.04-0.05L877.93,787.79L877.93,787.79z M897.16,760.66l-0.52,0.79
		l20.86,13.78c0.17-0.26,0.33-0.5,0.5-0.76c0.02-0.02,0.03-0.05,0.05-0.07L897.16,760.66L897.16,760.66z M914.44,732.27l-0.47,0.83
		l21.77,12.29c0.16-0.29,0.33-0.58,0.49-0.87L914.44,732.27L914.44,732.27z M929.69,702.73l-0.41,0.86l22.58,10.73
		c0.09-0.18,0.18-0.37,0.26-0.55c0.01-0.01,0,0,0.01-0.02c0.05-0.11,0.11-0.22,0.16-0.33L929.69,702.73L929.69,702.73z
		 M942.83,672.21l-0.35,0.89l23.28,9.11c0.02-0.06,0.05-0.12,0.07-0.18c0.01-0.03,0.03-0.08,0.04-0.11c0,0,0,0,0-0.01
		c0.07-0.18,0.13-0.33,0.2-0.51c0.01-0.01,0.01-0.03,0.02-0.04c0.01-0.03,0.02-0.06,0.03-0.09L942.83,672.21L942.83,672.21z
		 M953.78,640.83l-0.28,0.91l23.86,7.45c0.01-0.03,0.02-0.06,0.03-0.09c0.09-0.29,0.18-0.58,0.27-0.87L953.78,640.83L953.78,640.83z
		 M962.5,608.77l-0.22,0.92l24.33,5.75c0.01-0.03,0.02-0.07,0.02-0.1c0.05-0.2,0.1-0.4,0.14-0.61c0.02-0.08,0.04-0.18,0.06-0.26
		L962.5,608.77L962.5,608.77z M968.93,576.16l-0.15,0.94l24.67,4.03c0.01-0.07,0.02-0.14,0.03-0.21c0.02-0.15,0.05-0.32,0.08-0.47
		c0.02-0.1,0.03-0.21,0.05-0.31L968.93,576.16L968.93,576.16z M973.07,543.17l-0.09,0.95l24.89,2.29c0.01-0.08,0.01-0.15,0.02-0.23
		c0-0.05,0.01-0.08,0.01-0.12c0-0.03,0.01-0.06,0.01-0.09c0-0.05,0.01-0.07,0.01-0.11c0.01-0.15,0.03-0.29,0.04-0.44L973.07,543.17
		L973.07,543.17z M974.9,509.96l-0.02,0.95l24.99,0.56c0.01-0.32,0.01-0.68,0.02-1L974.9,509.96L974.9,509.96z M999.41,475.48
		l-24.97,1.21l0.04,0.95l24.97-1.16c-0.01-0.3-0.03-0.58-0.04-0.88C999.41,475.55,999.41,475.52,999.41,475.48L999.41,475.48z
		 M996.51,440.6l-24.83,2.94l0.11,0.94l24.83-2.89c-0.02-0.2-0.04-0.38-0.07-0.57c0,0,0-0.01,0-0.01c0-0.03-0.01-0.06-0.01-0.1
		C996.53,440.81,996.52,440.71,996.51,440.6L996.51,440.6z M991.18,406.01l-24.56,4.67l0.18,0.93l24.57-4.62
		c-0.04-0.2-0.08-0.41-0.11-0.61C991.23,406.26,991.2,406.14,991.18,406.01L991.18,406.01z M983.44,371.89l-24.17,6.39l0.24,0.92
		l24.18-6.34C983.61,372.53,983.52,372.21,983.44,371.89L983.44,371.89z M973.31,338.39l-23.66,8.08l0.31,0.9l23.68-8.03
		c-0.08-0.23-0.15-0.45-0.23-0.68c-0.02-0.05-0.02-0.07-0.04-0.11c0,0,0,0,0,0C973.34,338.5,973.32,338.44,973.31,338.39
		L973.31,338.39z M960.84,305.7l-23.03,9.72l0.37,0.88l23.05-9.68c-0.02-0.04-0.04-0.09-0.06-0.14c-0.04-0.11-0.09-0.21-0.13-0.32
		l-0.01-0.01c-0.02-0.04-0.03-0.07-0.05-0.11C960.94,305.92,960.89,305.81,960.84,305.7L960.84,305.7z M946.11,273.96l-22.29,11.32
		l0.43,0.85l22.31-11.27c-0.03-0.05-0.05-0.11-0.08-0.16c-0.07-0.14-0.14-0.28-0.21-0.42C946.21,274.17,946.16,274.06,946.11,273.96
		L946.11,273.96z M929.18,243.33l-21.44,12.85l0.49,0.82l21.47-12.81C929.52,243.89,929.36,243.63,929.18,243.33L929.18,243.33z
		 M910.15,213.96l-20.49,14.32l0.54,0.78l20.52-14.28c-0.1-0.15-0.2-0.29-0.31-0.44c-0.03-0.04-0.03-0.05-0.06-0.08
		C910.29,214.16,910.22,214.06,910.15,213.96L910.15,213.96z M889.12,185.99l-19.45,15.71l0.6,0.74l19.48-15.67
		c-0.1-0.13-0.21-0.25-0.31-0.38c-0.01-0.01-0.01-0.01-0.02-0.03c-0.02-0.03-0.04-0.05-0.06-0.08
		C889.28,186.19,889.2,186.09,889.12,185.99L889.12,185.99z M866.2,159.56l-18.31,17.03l0.65,0.7l18.34-16.99
		c-0.15-0.17-0.31-0.33-0.46-0.5C866.34,159.71,866.27,159.64,866.2,159.56L866.2,159.56z M841.49,134.78l-17.08,18.26l0.69,0.65
		l17.11-18.22c-0.17-0.16-0.34-0.31-0.5-0.47C841.65,134.93,841.56,134.84,841.49,134.78L841.49,134.78z M815.12,111.78l-15.77,19.4
		l0.74,0.6l15.81-19.37c-0.15-0.12-0.29-0.23-0.43-0.35C815.35,111.96,815.23,111.87,815.12,111.78L815.12,111.78z M787.21,90.67
		l-14.38,20.45l0.78,0.55l14.42-20.42c-0.03-0.02-0.04-0.03-0.07-0.05c-0.24-0.17-0.49-0.35-0.74-0.52L787.21,90.67L787.21,90.67z
		 M757.89,71.55l-12.91,21.41l0.81,0.49l12.96-21.38c-0.06-0.04-0.13-0.08-0.19-0.12c-0.01-0.01-0.03-0.02-0.04-0.02
		C758.31,71.8,758.1,71.68,757.89,71.55L757.89,71.55z M727.32,54.54L715.93,76.8l0.85,0.43L728.21,55
		c-0.24-0.12-0.46-0.23-0.69-0.36C727.45,54.61,727.38,54.57,727.32,54.54L727.32,54.54z M695.62,39.72l-9.79,23l0.87,0.37
		l9.84-22.98c-0.01-0.01-0.04-0.02-0.05-0.02c-0.05-0.02-0.1-0.04-0.15-0.06c-0.01-0.01-0.05-0.02-0.07-0.03
		c-0.05-0.02-0.1-0.04-0.16-0.07c-0.01-0.01-0.04-0.02-0.05-0.02c-0.06-0.03-0.12-0.05-0.18-0.08c-0.06-0.02-0.12-0.05-0.18-0.08
		c-0.01,0-0.02-0.01-0.03-0.01C695.66,39.73,695.63,39.72,695.62,39.72L695.62,39.72z M662.96,27.16l-8.14,23.64l0.9,0.31
		l8.19-23.62c-0.04-0.01-0.07-0.02-0.11-0.04c-0.06-0.02-0.09-0.03-0.15-0.05C663.42,27.32,663.19,27.24,662.96,27.16L662.96,27.16z
		 M629.49,16.93l-6.46,24.15l0.92,0.25l6.51-24.14c-0.05-0.01-0.06-0.02-0.11-0.03c-0.25-0.07-0.49-0.13-0.74-0.2
		C629.56,16.95,629.54,16.94,629.49,16.93L629.49,16.93z M595.39,9.09l-4.74,24.55l0.93,0.18l4.79-24.54
		c-0.08-0.02-0.17-0.03-0.25-0.05c-0.19-0.04-0.39-0.07-0.58-0.11C595.48,9.11,595.45,9.1,595.39,9.09L595.39,9.09z M560.82,3.66
		l-3.01,24.82l0.94,0.12l3.06-24.81C561.48,3.74,561.15,3.7,560.82,3.66L560.82,3.66z M525.95,0.66l-1.28,24.97l0.95,0.05
		l1.33-24.96c0,0-0.01,0-0.01,0c-0.24-0.01-0.48-0.03-0.72-0.04c-0.02,0-0.04,0-0.06,0c-0.02,0-0.04,0-0.06,0
		C526.05,0.67,526,0.66,525.95,0.66L525.95,0.66z"/>
</g>
</svg>
