<svg xmlns="http://www.w3.org/2000/svg" viewBox="0 0 236.42 51.36"><defs><style>.cls-1{fill:#fff;}</style></defs><title>logow</title><g id="图层_2" data-name="图层 2"><g id="图层_3" data-name="图层 3"><polygon class="cls-1" points="72.4 25.68 72.39 25.68 72.39 25.67 72.4 25.68"/><polygon class="cls-1" points="27.98 0.33 27.98 7.03 14.13 7.03 6.71 14.46 6.71 22.43 0 22.43 0 11.69 11.36 0.33 27.98 0.33"/><polygon class="cls-1" points="27.98 44.32 27.98 51.03 11.36 51.03 0 39.67 0 28.93 6.71 28.93 6.71 36.89 14.13 44.32 27.98 44.32"/><polygon class="cls-1" points="62.43 11.69 62.43 22.43 55.73 22.43 55.73 14.46 48.3 7.03 34.45 7.03 34.45 0.33 51.07 0.33 62.43 11.69"/><polygon class="cls-1" points="62.43 28.93 62.43 39.67 51.07 51.03 34.45 51.03 34.45 44.32 48.29 44.32 55.73 36.89 55.73 28.93 62.43 28.93"/><path class="cls-1" d="M31.34,20.14l5.33,3.08v6.15l-5.33,3.08L26,29.37V23.22l5.33-3.08m0-6.84L20.09,19.8v13l11.25,6.49,11.25-6.49v-13L31.34,13.3Z"/><path class="cls-1" d="M121,45.2h0a2.88,2.88,0,0,1-2.07-.88l-9.32-9.62,0-.05V30.07h-6.16v3.24L101.76,37A14,14,0,0,1,89,45.15v6.16A20.22,20.22,0,0,0,106.8,40.68l7.67,7.93a9.1,9.1,0,0,0,6.5,2.75h.1l4.13,0-.07-6.16Z"/><rect class="cls-1" x="195.91" y="2.28" width="38.38" height="6.16"/><polygon class="cls-1" points="236.42 25.44 236.42 19.29 193.78 19.29 193.78 25.44 205.8 25.44 195.91 45.11 195.91 45.11 195.91 51.27 234.29 51.27 234.29 45.11 234.29 45.11 230.86 38.29 223.96 38.29 227.4 45.11 202.81 45.11 212.7 25.44 236.42 25.44"/><path class="cls-1" d="M117,2.22H80.47V40.9a4.22,4.22,0,0,1-4.21,4.21v6.16A10.37,10.37,0,0,0,86.63,40.9V8.39h16.8v4.37H88.8v6.16h14.63v3.26H88.8V38.86H95V28.34h24.12V38.86h6.16V22.18H109.59V18.92h15.65V12.76H109.59V8.39h7.69a8,8,0,0,0,8-8V.09h-6.16A2.13,2.13,0,0,1,117,2.22Z"/><rect class="cls-1" x="156.59" y="17.15" width="23.41" height="5.21"/><polygon class="cls-1" points="157.15 41.62 162.47 41.62 159.2 25.68 153.88 25.68 157.15 41.62"/><polygon class="cls-1" points="166.52 41.62 171.84 41.62 168.57 25.68 163.25 25.68 166.52 41.62"/><polygon class="cls-1" points="182.14 25.68 176.7 25.68 171.86 41.84 170.9 45.03 170.6 46.02 151.53 46.02 151.53 51.24 185.22 51.24 185.22 46.02 176.04 46.02 182.14 25.68"/><path class="cls-1" d="M171.34,1.15l-.05-.1,0-.11c.13-.31.25-.63.37-.94h-6.19c-.18.35-.37.68-.56,1-2.74,4.57-7.76,8.74-11.67,11.42V7.3h-6.81V.09h-5.68V7.3h-6.52V13h6.52V51.27h5.68V13h6.19V19.5c1.54-.87,9.83-5.76,15.25-12.8l.19-.24.19.24a34.67,34.67,0,0,0,9.49,8.06,58.07,58.07,0,0,0,7.44,3.75V12.29C180.47,10.06,174.27,6.34,171.34,1.15Z"/><path class="cls-1" d="M134,40.43l4.55.27c.68-8.37,1.19-17.42,1.49-23.83l-4.55-.28C135.12,24.2,134.61,32.18,134,40.43Z"/><path class="cls-1" d="M152,17.05l-4.55.07c0,6.05.42,12.74,1,19.81l4.54-.24C152.41,29.36,152,22.67,152,17.05Z"/></g></g></svg>